<svg width="58" height="33" viewBox="0 0 58 33" fill="none" xmlns="http://www.w3.org/2000/svg">
<rect width="57.5481" height="33" rx="5" fill="#E3B02B"/>
<path d="M28.5481 7C26.5703 7 24.6369 7.58649 22.9924 8.6853C21.3479 9.78412 20.0662 11.3459 19.3093 13.1732C18.5524 15.0004 18.3544 17.0111 18.7402 18.9509C19.1261 20.8907 20.0785 22.6725 21.477 24.0711C22.8756 25.4696 24.6574 26.422 26.5972 26.8079C28.537 27.1937 30.5477 26.9957 32.3749 26.2388C34.2022 25.4819 35.764 24.2002 36.8628 22.5557C37.9616 20.9112 38.5481 18.9778 38.5481 17C38.5452 14.3487 37.4906 11.8069 35.6159 9.93219C33.7412 8.05746 31.1994 7.00295 28.5481 7ZM28.5481 25C26.9658 25 25.4191 24.5308 24.1035 23.6518C22.7879 22.7727 21.7626 21.5233 21.1571 20.0615C20.5516 18.5997 20.3931 16.9911 20.7018 15.4393C21.0105 13.8874 21.7724 12.462 22.8912 11.3431C24.0101 10.2243 25.4355 9.4624 26.9874 9.15372C28.5392 8.84504 30.1478 9.00346 31.6096 9.60896C33.0714 10.2145 34.3208 11.2398 35.1999 12.5554C36.0789 13.871 36.5481 15.4177 36.5481 17C36.5457 19.121 35.702 21.1544 34.2023 22.6542C32.7025 24.1539 30.6691 24.9976 28.5481 25ZM28.5481 16.5C28.2829 16.5 28.0285 16.6054 27.841 16.7929C27.6535 16.9804 27.5481 17.2348 27.5481 17.5V20.5C27.5481 20.7652 27.6535 21.0196 27.841 21.2071C28.0285 21.3946 28.2829 21.5 28.5481 21.5C28.8133 21.5 29.0677 21.3946 29.2552 21.2071C29.4427 21.0196 29.5481 20.7652 29.5481 20.5V17.5C29.5481 17.2348 29.4427 16.9804 29.2552 16.7929C29.0677 16.6054 28.8133 16.5 28.5481 16.5ZM28.5481 12.5C28.3009 12.5 28.0592 12.5733 27.8536 12.7107C27.6481 12.848 27.4879 13.0432 27.3933 13.2716C27.2986 13.5001 27.2739 13.7514 27.3221 13.9939C27.3703 14.2363 27.4894 14.4591 27.6642 14.6339C27.839 14.8087 28.0618 14.9278 28.3042 14.976C28.5467 15.0242 28.798 14.9995 29.0265 14.9048C29.2549 14.8102 29.4501 14.65 29.5874 14.4445C29.7248 14.2389 29.7981 13.9972 29.7981 13.75C29.7981 13.4185 29.6664 13.1005 29.432 12.8661C29.1976 12.6317 28.8796 12.5 28.5481 12.5Z" fill="white"/>
</svg>
